<?xml version="1.0" encoding="utf-8"?>
<svg viewBox="0 0 500 500" xmlns="http://www.w3.org/2000/svg">
  <g>
    <path style="fill: none; stroke: rgb(255, 0, 0);" d="M 106.637 174.814 C 106.637 174.814 118.016 190.913 126.146 197.06 C 135.433 204.085 146.415 206.703 157.239 209.054 C 166.337 211.03 185.081 210.692 185.081 210.692 C 208.521 209.097 229.47 204.612 247.923 197.235 C 259.004 192.806 265.023 182.195 265.982 165.403 C 266.682 153.139 266.948 145.214 266.782 141.628 C 266.65 138.787 264.406 137.15 260.046 136.719 C 227.635 133.514 195.159 135.924 162.618 143.952 C 137.208 150.221 118.25 158.506 105.74 168.808 C 104.184 170.089 104.483 172.09 106.637 174.814 Z"/>
    <path style="fill: none; stroke: rgb(255, 0, 0);" d="M 105.65 170.449 L 121.46 170.873 C 125.041 169.833 129.49 167.483 134.814 163.817 C 151.664 152.215 165.605 146.64 176.635 147.09 C 179.527 147.208 182.418 147.061 185.307 146.647 C 205.602 143.736 226.084 143.14 246.751 144.857 C 260.15 145.971 266.766 144.393 266.602 140.121"/>
    <path style="fill: none; stroke: rgb(255, 0, 0);" d="M 109.586 166.021 L 102.751 159.359 C 98.917 156.431 98.87 153.42 102.617 150.324 C 104.702 148.602 107.279 147.89 110.349 148.192 C 114.614 148.612 118.788 147.605 122.87 145.174 C 135.854 137.44 169.717 130.608 224.461 124.678 C 227.018 124.4 227.013 126.676 224.443 131.504 C 224.242 131.882 223.907 132.143 223.442 132.287 C 218.981 133.667 207.632 134.369 189.394 134.39 C 178.572 134.402 156.174 140.576 122.205 152.912 C 115.947 155.183 109.857 157.538 103.932 159.974"/>
    <path style="fill: none; stroke: rgb(255, 0, 0);" d="M 231.777 125.735 C 227.57 126.638 227.212 128.427 230.702 131.108 C 231.821 131.968 233.199 132.184 234.833 131.76 C 250.132 127.79 281.078 131.844 327.67 143.921 C 331.641 144.951 335.733 144.733 339.937 143.264 C 340.876 142.936 341.31 141.57 339.951 140.186 C 331.47 131.542 271.58 121.315 231.777 125.735 Z"/>
    <path style="fill: none; stroke: rgb(255, 0, 0);" d="M 248.001 198.529 C 252.056 199.6 258.775 199.842 268.157 199.253 C 276.999 198.697 285.849 199.135 294.702 200.563 C 303.407 201.967 311.58 198.56 319.222 190.345 C 325.606 183.484 328.817 174.562 328.858 163.582 C 328.863 162.598 329.508 161.879 330.795 161.422 C 332.356 160.868 332.915 159.261 332.476 156.601 C 330.472 144.46 279.726 132.5 269.089 137.572 C 266.28 138.911 266.951 140.334 268.465 147.164 C 271.62 161.402 267.42 189.164 248.001 198.529 Z"/>
    <path style="fill: none; stroke: rgb(255, 0, 0);" d="M 269.371 137.967 C 267.196 140.126 269.553 141.788 276.441 142.955 C 284.515 144.323 292.134 147.624 300.245 149.261 C 311.026 151.436 315.531 154.1 319.543 161.376 C 321.134 164.258 324.996 164.102 329.094 162.514"/>
    <path style="fill: none; stroke: rgb(255, 0, 0);" d="M 112.464 147.986 C 112.443 144.809 111.091 141.925 108.412 139.338 C 107.129 138.099 108.84 137.721 113.541 138.2 C 114.489 138.295 114.762 137.352 114.362 135.365 C 113.941 133.274 112.11 132.294 108.87 132.424 C 107.649 132.471 108.512 131.575 111.456 129.733 C 113.726 128.312 116.377 128.284 119.408 129.647 C 126.696 132.924 134.155 131.092 143.26 129.024 C 155.356 126.278 167.555 122.143 180.957 123.473 C 184.575 123.832 184.566 125.198 180.927 127.575 C 180.162 128.075 179.295 128.344 178.327 128.38 C 162.267 128.976 144.6 133.31 125.325 141.386 C 121.03 143.185 115.598 143.228 110.638 141.793"/>
    <ellipse style="fill: rgb(255, 255, 255); stroke: rgb(255, 0, 0);" cx="127.44" cy="130.421" rx="8.474" ry="3.342"/>
    <path style="fill: rgb(255, 255, 255); stroke: rgb(255, 0, 0);" d="M 119.036 131.846 L 119.158 135.09 C 124.139 138.494 129.747 138.317 135.479 135.526 L 135.368 131.947 L 133.145 133.08 C 133.145 133.08 128.878 133.815 126.73 133.746 C 125.006 133.688 123.289 133.341 121.622 132.874 C 120.73 132.625 119.036 131.846 119.036 131.846 Z"/>
    <path style="fill: none; stroke: rgb(255, 0, 0);" d="M 191.558 122.965 C 187.164 121.465 187.067 119.604 191.562 119.053 C 233.462 113.924 272.466 111.734 315.228 121.247 C 321.134 122.56 320.618 124.364 313.873 125.814 C 309.13 126.834 304.329 126.216 299.475 123.967 C 291.45 120.248 260.892 120.189 207.803 123.787 C 202.2 124.168 196.784 123.892 191.558 122.965 Z"/>
    <path style="fill: rgb(216, 216, 216); stroke: rgb(255, 0, 0);" d="M 189.524 128.38 L 189.339 122.151"/>
    <path style="fill: rgb(216, 216, 216); stroke: rgb(255, 0, 0);" d="M 316.878 130.284 L 319.423 124.197"/>
    <path style="fill: none; stroke: rgb(255, 0, 0);" d="M 142.562 124.348 C 136.651 122.117 136.582 120.579 142.354 119.736 C 145.372 119.295 148.363 118.689 151.329 117.917 C 152.573 117.594 152.214 116.317 150.25 114.089 C 148.151 111.71 147.836 110.622 149.304 110.831 C 152.563 111.293 155.829 111.693 159.102 112.033 C 161.749 112.309 161.513 113.507 158.395 115.629 C 157.124 116.494 158.723 117.235 162.921 116.214 C 200.228 107.134 236.68 105.148 273.45 106.085 C 276.065 106.152 278.552 106.724 280.923 108.562 C 282.807 110.021 280.787 112.242 274.708 112.024 C 222.827 110.172 202.84 112.819 168.716 119.664 C 160.159 121.379 151.558 124.302 142.562 124.348 Z"/>
    <path style="fill: rgb(216, 216, 216); stroke: rgb(255, 0, 0);" d="M 138.554 122.294 L 141.993 128.844"/>
    <path style="fill: rgb(216, 216, 216); stroke: rgb(255, 0, 0);" d="M 279.733 111.406 L 279.682 115.117"/>
    <ellipse style="fill: rgb(255, 255, 255); stroke: rgb(255, 0, 0);" cx="176.455" cy="99.925" rx="8.474" ry="3.342"/>
    <path style="fill: rgb(255, 255, 255); stroke: rgb(255, 0, 0);" d="M 168.05 101.351 L 168.173 104.595 C 173.154 107.999 178.761 107.822 184.494 105.031 L 184.383 101.451 L 182.159 102.585 C 182.159 102.585 177.892 103.32 175.745 103.251 C 174.021 103.193 172.303 102.846 170.637 102.379 C 169.744 102.129 168.05 101.351 168.05 101.351 Z"/>
    <ellipse style="fill: rgb(255, 255, 255); stroke: rgb(255, 0, 0);" cx="185.37" cy="94.236" rx="8.474" ry="3.342"/>
    <path style="fill: rgb(255, 255, 255); stroke: rgb(255, 0, 0);" d="M 176.965 95.661 L 177.088 98.905 C 182.069 102.309 187.677 102.132 193.409 99.341 L 193.298 95.762 L 191.075 96.895 C 191.075 96.895 186.808 97.63 184.66 97.561 C 182.936 97.503 181.219 97.156 179.552 96.689 C 178.66 96.44 176.965 95.661 176.965 95.661 Z"/>
    <path style="fill: rgb(216, 216, 216); stroke: rgb(255, 0, 0);" d="M 338.428 144.237 L 330.555 152.145"/>
  </g>
</svg>