<?xml version="1.0" encoding="utf-8"?>
<svg viewBox="0 0 500 500" xmlns="http://www.w3.org/2000/svg">
  <path style="fill: none; stroke: rgb(198, 198, 198);" d="M 130.461 330.027 C 129.403 321.303 132.516 313.104 141.545 305.842 C 147.742 300.857 154.981 297.564 163.262 295.961 C 168.719 294.905 174.058 296.161 179.901 297.039 C 185.536 297.886 205.867 298.232 218.473 300.352 C 247.957 305.31 269.354 312.616 284.065 319.518 C 293.265 323.834 308.867 329.274 320.603 339.393 C 329.484 347.051 335.652 357.024 339.107 369.314 C 342.796 382.438 336.045 401.778 328.453 408.799 C 319.703 416.891 299.738 416.538 279.884 417.137 C 260.989 417.707 242.098 418.381 223.21 419.159 C 212.372 419.605 201.616 418.21 190.94 414.973 C 176.962 410.735 163.244 404.724 152.467 393.999 C 145.21 386.778 131.515 347.411 130.461 330.027 Z"/>
  <path style="fill: none; stroke: rgb(198, 198, 198);" d="M 143.071 323.777 C 138.305 316.568 138.112 312.661 139.897 309.768 C 141.5 307.17 151.374 300.952 159.454 299.94 C 163.783 299.398 179.72 298.79 190.256 299.36 C 210.072 300.431 234 304.102 255.371 311.091 C 259.17 312.334 260.44 316.124 259.179 322.462 C 259.044 323.142 258.942 323.427 258.826 324.11 C 258.792 324.308 258.715 324.854 259.015 324.956 C 259.203 325.02 259.516 324.927 259.63 324.631 C 260.818 321.55 261.091 317.941 263.29 315.501 C 264.339 314.337 265.3 313.454 267.849 314.401 C 280.692 319.172 302.294 329.62 313.889 338.287 C 315.185 339.255 316.211 340.506 316.969 342.037 C 317.557 343.225 317.026 344.444 315.375 345.694 C 313.166 347.367 310.827 348.853 308.359 350.153 C 307.977 350.354 307.653 350.639 307.386 351.007 C 307.269 351.169 307.442 351.269 307.905 351.307 C 308.295 351.339 308.678 351.259 309.054 351.067 C 312.755 349.177 316.551 347.48 320.44 345.976 C 323.714 344.71 326.032 346.355 329.243 351.018 C 332.13 355.21 334.132 358.232 337.724 368.422 C 338.108 369.51 338.072 370.663 337.616 371.881 C 336.942 373.681 335.371 374.787 332.903 375.2 C 332.477 375.271 332.087 375.458 331.734 375.759 C 331.549 375.917 331.596 376.156 331.875 376.475 C 332.03 376.652 332.267 376.657 332.586 376.489 C 333.994 375.748 335.537 375.361 337.215 375.329 C 338.03 375.313 338.439 376.021 338.441 377.453 C 338.452 385.048 336.382 392.363 332.232 399.398 C 328.018 406.542 321.02 410.995 311.24 412.758 C 301.783 414.463 292.174 414.593 282.414 413.148 C 279.479 412.713 277.413 410.583 276.218 406.756 C 275.935 405.85 275.602 404.961 275.218 404.09 C 275.136 403.904 274.96 404.005 274.689 404.394 C 274.47 404.708 274.68 404.994 274.963 405.509 C 276.065 407.516 277.798 410.567 277.352 414.141 C 277.16 415.679 275.757 416.01 273.099 416.019 C 265.516 416.043 236.781 416.984 229.168 417.593 C 222.346 418.139 215.591 418.624 208.645 417.08 C 207.335 416.789 206.721 415.595 206.804 413.5 C 206.877 411.645 207.571 409.925 208.885 408.341 C 209.051 408.14 209.16 407.903 209.212 407.63 C 209.248 407.442 209.129 407.292 208.857 407.179 C 208.699 407.113 208.56 407.213 208.44 407.479 C 207.296 410.015 206.034 412.494 204.653 414.916 C 204.128 415.836 203.131 416.193 201.662 415.988 C 200.388 415.81 199.279 415.183 198.044 414.714 C 196.611 414.169 192.85 412.902 190.825 412.311 C 177.715 408.484 163.179 402.181 152.742 390.898 C 151.364 389.409 151.615 387.348 153.354 384.842 C 154.64 382.989 156.107 381.276 157.756 379.702 C 157.935 379.531 158.06 379.318 158.131 379.062 C 158.189 378.852 158.059 378.681 157.741 378.548 C 157.418 378.413 157.153 378.642 156.947 379.235 C 156.099 381.676 152.911 383.576 151.13 384.358 C 149.949 384.876 148.76 384.38 147.56 382.868 C 146.255 381.224 145.152 378.836 144.252 375.706 C 142.007 367.9 139.411 360.205 136.462 352.623 C 133.564 345.171 132.119 337.308 132.129 329.032 C 132.134 324.867 132.886 320.783 134.384 316.781 C 134.608 316.183 134.736 316.14 135.41 315.781 C 135.906 315.517 136.489 315.821 137.222 316.508 C 140.494 319.578 142.378 322.55 143.071 323.777 Z"/>
</svg>