<?xml version="1.0" encoding="utf-8"?>
<svg viewBox="0 0 500 500" xmlns="http://www.w3.org/2000/svg">
  <g>
    <path style="fill: none; stroke: rgb(123, 111, 86);" d="M 231.611 113.956 C 239.803 98.998 264.198 87.297 304.797 78.854 C 325.941 74.457 347.123 78.667 368.344 91.486 C 376.154 96.204 380.799 104.057 382.279 115.046 C 383.208 121.941 383.695 128.881 383.741 135.867 C 383.806 145.719 384.978 155.487 386.225 165.32 C 390.025 195.286 390.651 245.51 389.163 282.374 C 388.607 296.143 380.106 305.195 363.66 309.532 C 342.55 315.099 302.901 303.904 270.69 298.464 C 250.838 295.111 237.633 283.621 231.074 263.993 C 225.023 245.885 223.624 219.563 226.876 185.028 C 228.768 164.935 229.539 144.768 229.189 124.526 C 229.125 120.848 229.933 117.325 231.611 113.956 Z"/>
    <path style="fill: none; stroke: rgb(123, 111, 86);" d="M 234.393 115.737 C 242.213 101.213 265.504 89.851 304.264 81.653 C 324.451 77.383 344.674 81.471 364.934 93.919 C 372.39 98.5 376.825 106.125 378.238 116.796 C 379.125 123.491 379.59 130.23 379.633 137.013 C 379.696 146.58 380.815 156.064 382.005 165.612 C 385.633 194.71 386.231 243.478 384.81 279.273 C 384.279 292.643 376.163 301.433 360.462 305.644 C 340.307 311.049 302.455 300.179 271.702 294.897 C 252.748 291.641 240.142 280.484 233.88 261.425 C 228.103 243.842 226.767 218.283 229.872 184.749 C 231.678 165.239 232.414 145.656 232.08 126.001 C 232.019 122.43 232.79 119.009 234.393 115.737 Z"/>
  </g>
</svg>